<svg xmlns="http://www.w3.org/2000/svg" fill="none" viewBox="0 0 184 56" class="header__tsclogo md:hidden lg:block">
    <path fill="#00326D" d="M29.656 35.063 14.93 28.051v13.924l14.726-6.912Z"></path>
    <path fill="#11459B" d="M14.93 13.924 0 7.013V34.86l14.93 7.115V13.924Z"></path>
    <path fill="#3277BC" d="M14.828 14.127 0 7.013 14.828 0l14.524 7.013-14.524 7.114Z"></path>
    <path fill="#A42618" d="m22.04 49.072 14.877-7.03V56l-14.878-6.928Z"></path>
    <path fill="#D63228" d="M36.917 27.881 52 20.953v27.915L36.917 56V27.881Z"></path>
    <path fill="#E05826" d="M37.02 28.085 52 20.953l-14.98-7.03-14.673 7.03 14.672 7.132Z"></path>
    <path fill="#064EA4"
        d="M68.647 24h-3.459V10.175h-4.963v-3.02h13.398v3.02h-4.976V24Zm6.581 0V7.154h3.224v6.94c.808-1.032 1.969-1.55 3.481-1.55 1.415 0 2.52.439 3.313 1.315.794.868 1.19 2.085 1.19 3.65V24h-3.223v-5.638c0-.936-.206-1.658-.617-2.167-.412-.51-.989-.764-1.73-.764-.756 0-1.347.259-1.774.775-.427.517-.64 1.235-.64 2.156V24h-3.224Zm24.067-1.258c-1.392.988-2.916 1.483-4.57 1.483-1.228 0-2.333-.262-3.313-.787a6.17 6.17 0 0 1-2.314-2.156c-.561-.906-.842-1.928-.842-3.066 0-1.085.254-2.055.763-2.908a5.615 5.615 0 0 1 2.1-2.022c.884-.494 1.887-.741 3.01-.741 1.16 0 2.183.273 3.066.82.884.539 1.573 1.295 2.067 2.268.494.966.741 2.085.741 3.358v.36h-8.277c.135.441.356.83.663 1.168.307.329.689.591 1.145.786.457.194.981.292 1.572.292 1.146 0 2.213-.37 3.201-1.112l.988 2.257Zm-7.715-5.031h5.447a2.886 2.886 0 0 0-.46-1.28 2.5 2.5 0 0 0-.955-.876 2.727 2.727 0 0 0-1.314-.315c-.494 0-.936.109-1.325.326-.382.217-.693.509-.933.876a3.07 3.07 0 0 0-.46 1.269Zm14.892 4.47 1.639-2.64c.517.42 1.015.764 1.494 1.034.487.262.966.456 1.437.584.472.12.955.18 1.449.18.584 0 1.09-.083 1.516-.248.427-.164.757-.4.989-.707.239-.307.359-.663.359-1.067 0-.472-.15-.869-.449-1.19-.3-.322-.693-.603-1.179-.843-.48-.247-1-.483-1.561-.707a34.624 34.624 0 0 1-1.651-.73 8.476 8.476 0 0 1-1.516-.955 4.358 4.358 0 0 1-1.112-1.336c-.277-.532-.416-1.176-.416-1.932 0-.988.247-1.842.741-2.56.502-.72 1.187-1.273 2.056-1.663.868-.389 1.86-.584 2.976-.584.786 0 1.602.105 2.448.315.853.21 1.703.528 2.549.954l-1.359 2.797a7.543 7.543 0 0 0-1.718-.764 5.943 5.943 0 0 0-1.729-.28c-.487 0-.914.074-1.281.224-.359.15-.64.36-.842.629a1.482 1.482 0 0 0-.303.932c0 .427.146.797.438 1.112.292.307.67.58 1.134.82.472.24.977.479 1.516.718.554.24 1.112.502 1.674.787a7.887 7.887 0 0 1 1.549 1.01c.472.382.85.843 1.135 1.382.292.531.438 1.171.438 1.92 0 .988-.262 1.857-.787 2.605-.524.742-1.254 1.322-2.189 1.741-.936.412-2.026.618-3.269.618a9.757 9.757 0 0 1-3.268-.55 10.185 10.185 0 0 1-2.908-1.606Zm17.834 7.434h-3.235V12.77h2.83l.169 1.527a5.093 5.093 0 0 1 1.718-1.28 5.141 5.141 0 0 1 2.201-.472c1.033 0 1.951.255 2.752.764.801.501 1.433 1.194 1.898 2.077.464.876.696 1.876.696 2.999 0 1.115-.232 2.115-.696 2.998-.465.884-1.097 1.58-1.898 2.09-.801.5-1.719.752-2.752.752a5.263 5.263 0 0 1-2.044-.394 5.245 5.245 0 0 1-1.639-1.111v6.895Zm2.863-8.288c.562 0 1.056-.123 1.483-.37.427-.255.76-.603.999-1.045.247-.45.371-.958.371-1.527 0-.577-.124-1.086-.371-1.528a2.675 2.675 0 0 0-.999-1.044c-.427-.255-.917-.382-1.471-.382-.524 0-.996.116-1.415.348-.42.225-.76.54-1.022.944a2.956 2.956 0 0 0-.438 1.392v.562c.037.509.183.966.438 1.37.254.397.591.711 1.01.943.42.225.891.337 1.415.337Zm18.553 1.415c-1.392.988-2.916 1.483-4.571 1.483-1.227 0-2.332-.262-3.313-.787a6.17 6.17 0 0 1-2.313-2.156c-.562-.906-.842-1.928-.842-3.066 0-1.085.254-2.055.763-2.908a5.62 5.62 0 0 1 2.1-2.022c.884-.494 1.887-.741 3.01-.741 1.161 0 2.183.273 3.066.82.884.539 1.572 1.295 2.066 2.268.495.966.742 2.085.742 3.358v.36h-8.277c.135.441.355.83.662 1.168.307.329.689.591 1.146.786.457.194.981.292 1.572.292 1.146 0 2.213-.37 3.201-1.112l.988 2.257Zm-7.715-5.031h5.447a2.889 2.889 0 0 0-.461-1.28 2.5 2.5 0 0 0-.954-.876 2.731 2.731 0 0 0-1.314-.315c-.495 0-.936.109-1.326.326a2.69 2.69 0 0 0-.932.876c-.239.367-.393.79-.46 1.269Zm20.417 4.503a5.797 5.797 0 0 1-2.01 1.483c-.794.352-1.666.528-2.617.528-1.153 0-2.186-.251-3.1-.753a5.688 5.688 0 0 1-2.145-2.089c-.516-.883-.775-1.883-.775-2.998 0-1.123.259-2.123.775-2.999a5.606 5.606 0 0 1 2.145-2.077c.914-.51 1.947-.764 3.1-.764.943 0 1.812.176 2.605.528a5.734 5.734 0 0 1 2.011 1.46l-1.898 1.987a2.941 2.941 0 0 0-1.112-.786 3.417 3.417 0 0 0-1.393-.292c-.561 0-1.063.128-1.505.382-.441.247-.79.592-1.044 1.033-.255.435-.382.936-.382 1.505 0 .577.127 1.09.382 1.539.254.45.603.801 1.044 1.055.442.248.944.371 1.505.371.487 0 .955-.093 1.404-.28.449-.195.816-.461 1.101-.798l1.909 1.965Zm3.605-12.129c-.427 0-.786-.15-1.078-.449a1.503 1.503 0 0 1-.438-1.09c0-.426.146-.785.438-1.077.292-.3.651-.45 1.078-.45.434 0 .797.15 1.089.45.3.292.449.651.449 1.078 0 .427-.149.79-.449 1.09-.292.299-.655.448-1.089.448ZM163.646 24h-3.223V12.77h3.223V24Zm12.792 0h-2.808l-.169-1.336c-.411.494-.92.88-1.527 1.156a4.867 4.867 0 0 1-1.999.405c-.786 0-1.486-.15-2.1-.45a3.658 3.658 0 0 1-1.449-1.257 3.274 3.274 0 0 1-.528-1.831c0-.719.191-1.351.573-1.898.382-.547.906-.973 1.572-1.28.674-.315 1.438-.472 2.291-.472.502 0 1.004.056 1.505.169.509.112.981.27 1.415.471v-.292c0-.449-.127-.835-.381-1.157-.248-.329-.592-.584-1.034-.763a3.787 3.787 0 0 0-1.46-.27 4.97 4.97 0 0 0-1.538.247 4.628 4.628 0 0 0-1.393.742l-.876-2.46c.756-.39 1.52-.681 2.291-.876a8.977 8.977 0 0 1 2.258-.303c1.093 0 2.04.217 2.841.651a4.473 4.473 0 0 1 1.853 1.82c.442.778.663 1.703.663 2.774V24Zm-5.795-2.257c.426 0 .834-.094 1.224-.281.389-.187.703-.442.943-.764.247-.322.378-.677.393-1.067v-.078a3.907 3.907 0 0 0-1.1-.517 3.956 3.956 0 0 0-1.213-.19c-.614 0-1.116.134-1.505.404-.39.269-.584.617-.584 1.044 0 .277.078.528.236.752a1.7 1.7 0 0 0 .662.517c.277.12.592.18.944.18ZM182.401 24h-3.448V6.705h3.448V24ZM75.97 45.889a8.545 8.545 0 0 1-2.797 1.796c-1.078.435-2.25.652-3.515.652-1.28 0-2.46-.217-3.537-.652a8.674 8.674 0 0 1-2.82-1.841 8.518 8.518 0 0 1-1.852-2.785c-.442-1.064-.663-2.224-.663-3.482s.221-2.418.663-3.481a8.364 8.364 0 0 1 1.853-2.785 8.526 8.526 0 0 1 2.819-1.831c1.078-.442 2.257-.663 3.537-.663 1.258 0 2.422.218 3.493.652a8.454 8.454 0 0 1 2.796 1.808l-2.414 2.426a5.04 5.04 0 0 0-1.73-1.36 4.851 4.851 0 0 0-2.2-.505 5.024 5.024 0 0 0-3.774 1.651 5.482 5.482 0 0 0-1.112 1.82 6.358 6.358 0 0 0-.393 2.257c0 .823.13 1.583.393 2.28a5.61 5.61 0 0 0 1.112 1.83c.479.517 1.037.921 1.673 1.213a5.137 5.137 0 0 0 2.1.427c.794 0 1.527-.165 2.201-.494a5.196 5.196 0 0 0 1.719-1.37l2.448 2.437ZM78.216 48V31.154h3.223v6.94c.809-1.032 1.969-1.55 3.481-1.55 1.415 0 2.52.439 3.313 1.315.794.868 1.19 2.085 1.19 3.65V48h-3.222v-5.638c0-.936-.206-1.658-.618-2.167-.412-.51-.988-.764-1.73-.764-.756 0-1.347.259-1.774.775-.427.517-.64 1.235-.64 2.156V48h-3.223Zm23.741 0h-2.808l-.168-1.336c-.412.494-.92.88-1.527 1.156a4.867 4.867 0 0 1-2 .405c-.785 0-1.486-.15-2.1-.45a3.656 3.656 0 0 1-1.448-1.257 3.275 3.275 0 0 1-.528-1.831c0-.719.19-1.351.573-1.898.382-.547.906-.973 1.572-1.28.674-.315 1.437-.472 2.291-.472.502 0 1.003.056 1.505.169.509.112.98.27 1.415.471v-.292c0-.449-.127-.834-.382-1.157-.247-.329-.591-.584-1.033-.763-.434-.18-.921-.27-1.46-.27-.517 0-1.03.083-1.539.247a4.629 4.629 0 0 0-1.392.742l-.876-2.46c.756-.39 1.52-.681 2.29-.876a8.974 8.974 0 0 1 2.258-.303c1.093 0 2.04.217 2.841.651a4.469 4.469 0 0 1 1.853 1.82c.442.778.663 1.703.663 2.774V48Zm-5.795-2.257a2.79 2.79 0 0 0 1.224-.281c.39-.187.704-.442.944-.764.247-.322.378-.677.393-1.067v-.078a3.913 3.913 0 0 0-1.1-.517 3.95 3.95 0 0 0-1.214-.19c-.614 0-1.115.134-1.505.404-.389.269-.584.617-.584 1.044 0 .277.079.528.236.752.165.218.386.39.663.517.277.12.591.18.943.18ZM107.696 48h-3.223V36.77h2.807l.113 1.942a4.116 4.116 0 0 1 1.527-1.594c.644-.382 1.381-.573 2.212-.573.24 0 .479.019.719.056.247.03.498.079.753.146l-.405 2.898a5.08 5.08 0 0 0-1.404-.214c-.621 0-1.168.142-1.639.427a2.803 2.803 0 0 0-1.078 1.168c-.255.494-.382 1.074-.382 1.74V48Zm16.071 0h-2.808l-.168-1.336c-.412.494-.921.88-1.528 1.156a4.867 4.867 0 0 1-1.999.405c-.786 0-1.486-.15-2.1-.45a3.658 3.658 0 0 1-1.449-1.257 3.273 3.273 0 0 1-.527-1.831c0-.719.19-1.351.572-1.898.382-.547.906-.973 1.573-1.28.673-.315 1.437-.472 2.291-.472.501 0 1.003.056 1.504.169.51.112.981.27 1.415.471v-.292c0-.449-.127-.834-.381-1.157-.247-.329-.592-.584-1.034-.763-.434-.18-.92-.27-1.46-.27a4.97 4.97 0 0 0-1.538.247 4.628 4.628 0 0 0-1.393.742l-.876-2.46a10.77 10.77 0 0 1 2.291-.876 8.977 8.977 0 0 1 2.258-.303c1.093 0 2.04.217 2.841.651a4.473 4.473 0 0 1 1.853 1.82c.442.778.663 1.703.663 2.774V48Zm-5.795-2.257c.426 0 .834-.094 1.224-.281a2.5 2.5 0 0 0 .943-.764c.247-.322.378-.677.393-1.067v-.078a3.907 3.907 0 0 0-1.1-.517 3.951 3.951 0 0 0-1.213-.19c-.614 0-1.116.134-1.505.404-.389.269-.584.617-.584 1.044 0 .277.078.528.236.752a1.7 1.7 0 0 0 .662.517c.277.12.592.18.944.18Zm18.26.471a5.778 5.778 0 0 1-2.01 1.483c-.793.352-1.666.528-2.617.528-1.153 0-2.186-.251-3.099-.753a5.688 5.688 0 0 1-2.145-2.089c-.517-.883-.775-1.883-.775-2.998 0-1.123.258-2.123.775-2.999a5.606 5.606 0 0 1 2.145-2.077c.913-.51 1.946-.764 3.099-.764.944 0 1.812.176 2.606.528a5.72 5.72 0 0 1 2.01 1.46l-1.898 1.987a2.934 2.934 0 0 0-1.112-.786 3.41 3.41 0 0 0-1.392-.292 2.96 2.96 0 0 0-1.505.382c-.442.247-.79.592-1.044 1.033-.255.435-.382.936-.382 1.505 0 .577.127 1.09.382 1.539.254.45.602.801 1.044 1.055.442.248.943.371 1.505.371.487 0 .954-.093 1.404-.28a2.94 2.94 0 0 0 1.1-.798l1.909 1.965Zm9.715 1.494c-.861.344-1.696.517-2.505.517-.838 0-1.579-.176-2.223-.528a3.865 3.865 0 0 1-1.494-1.494c-.359-.644-.539-1.385-.539-2.224v-4.334h-1.965v-2.876h2.133v-2.807h3.055v2.807h3.111v2.876h-3.111v3.75c0 .614.169 1.094.506 1.438.336.337.756.505 1.257.505.457 0 .903-.142 1.337-.426l.438 2.796Zm12.219-.966c-1.393.989-2.917 1.483-4.571 1.483-1.228 0-2.332-.262-3.313-.787a6.166 6.166 0 0 1-2.314-2.156c-.561-.906-.842-1.928-.842-3.066 0-1.085.255-2.055.764-2.908a5.606 5.606 0 0 1 2.1-2.022c.883-.494 1.886-.741 3.01-.741 1.16 0 2.182.273 3.065.82.884.539 1.573 1.295 2.067 2.268.494.966.741 2.085.741 3.358v.36h-8.277c.135.441.356.83.663 1.168.307.329.689.591 1.145.786.457.194.981.292 1.573.292 1.145 0 2.212-.37 3.2-1.112l.989 2.257Zm-7.716-5.031h5.447a2.888 2.888 0 0 0-.46-1.28 2.503 2.503 0 0 0-.955-.876 2.725 2.725 0 0 0-1.314-.315c-.494 0-.936.109-1.325.326-.382.217-.693.509-.932.876-.24.367-.393.79-.461 1.269ZM164.14 48h-3.223V36.77h2.808l.112 1.942a4.116 4.116 0 0 1 1.527-1.594c.644-.382 1.382-.573 2.213-.573.239 0 .479.019.718.056.247.03.498.079.753.146l-.404 2.898a5.091 5.091 0 0 0-1.404-.214c-.622 0-1.168.142-1.64.427a2.81 2.81 0 0 0-1.078 1.168c-.255.494-.382 1.074-.382 1.74V48Z">
    </path>
</svg>